<svg width="1160" height="650" viewBox="0 0 1160 650" fill="none" xmlns="http://www.w3.org/2000/svg">
<mask id="mask0_35_8748" style="mask-type:luminance" maskUnits="userSpaceOnUse" x="-60" y="-63" width="1280" height="832">
<path d="M1220 -63H-60V769H1220V-63Z" fill="white"/>
</mask>
<g mask="url(#mask0_35_8748)">
<path d="M0 357L-60 417L0 357Z" stroke="white" stroke-opacity="0.05" stroke-width="3"/>
<path d="M25 27C25 28.3261 25.5268 29.5979 26.4645 30.5355C27.4021 31.4732 28.6739 32 30 32C31.3261 32 32.5979 31.4732 33.5355 30.5355C34.4732 29.5979 35 28.3261 35 27C35 25.6739 34.4732 24.4021 33.5355 23.4645C32.5979 22.5268 31.3261 22 30 22C28.6739 22 27.4021 22.5268 26.4645 23.4645C25.5268 24.4021 25 25.6739 25 27V27Z" stroke="white" stroke-opacity="0.05"/>
<path d="M36 81L24 93L36 81Z" stroke="white" stroke-opacity="0.05"/>
<path d="M36 141L24 153L36 141Z" stroke="white" stroke-opacity="0.05"/>
<path d="M29 207C29 207.265 29.1054 207.52 29.2929 207.707C29.4804 207.895 29.7348 208 30 208C30.2652 208 30.5196 207.895 30.7071 207.707C30.8946 207.52 31 207.265 31 207C31 206.735 30.8946 206.48 30.7071 206.293C30.5196 206.105 30.2652 206 30 206C29.7348 206 29.4804 206.105 29.2929 206.293C29.1054 206.48 29 206.735 29 207V207Z" stroke="white" stroke-opacity="0.05"/>
<path d="M25 267C25 268.326 25.5268 269.598 26.4645 270.536C27.4021 271.473 28.6739 272 30 272C31.3261 272 32.5979 271.473 33.5355 270.536C34.4732 269.598 35 268.326 35 267C35 265.674 34.4732 264.402 33.5355 263.464C32.5979 262.527 31.3261 262 30 262C28.6739 262 27.4021 262.527 26.4645 263.464C25.5268 264.402 25 265.674 25 267V267Z" stroke="white" stroke-opacity="0.05"/>
<path d="M25 327C25 328.326 25.5268 329.598 26.4645 330.536C27.4021 331.473 28.6739 332 30 332C31.3261 332 32.5979 331.473 33.5355 330.536C34.4732 329.598 35 328.326 35 327C35 325.674 34.4732 324.402 33.5355 323.464C32.5979 322.527 31.3261 322 30 322C28.6739 322 27.4021 322.527 26.4645 323.464C25.5268 324.402 25 325.674 25 327V327Z" stroke="white" stroke-opacity="0.05"/>
<path d="M32 385L28 389L32 385Z" stroke="white" stroke-opacity="0.05"/>
<path d="M32 445L28 449L32 445Z" stroke="white" stroke-opacity="0.05"/>
<path d="M36 501L24 513L36 501Z" stroke="white" stroke-opacity="0.05"/>
<path d="M25 567C25 568.326 25.5268 569.598 26.4645 570.536C27.4021 571.473 28.6739 572 30 572C31.3261 572 32.5979 571.473 33.5355 570.536C34.4732 569.598 35 568.326 35 567C35 565.674 34.4732 564.402 33.5355 563.464C32.5979 562.527 31.3261 562 30 562C28.6739 562 27.4021 562.527 26.4645 563.464C25.5268 564.402 25 565.674 25 567V567Z" stroke="white" stroke-opacity="0.05"/>
<path d="M25 627C25 628.326 25.5268 629.598 26.4645 630.536C27.4021 631.473 28.6739 632 30 632C31.3261 632 32.5979 631.473 33.5355 630.536C34.4732 629.598 35 628.326 35 627C35 625.674 34.4732 624.402 33.5355 623.464C32.5979 622.527 31.3261 622 30 622C28.6739 622 27.4021 622.527 26.4645 623.464C25.5268 624.402 25 625.674 25 627V627Z" stroke="white" stroke-opacity="0.05"/>
<path d="M89 27C89 27.2652 89.1054 27.5196 89.2929 27.7071C89.4804 27.8946 89.7348 28 90 28C90.2652 28 90.5196 27.8946 90.7071 27.7071C90.8946 27.5196 91 27.2652 91 27C91 26.7348 90.8946 26.4804 90.7071 26.2929C90.5196 26.1054 90.2652 26 90 26C89.7348 26 89.4804 26.1054 89.2929 26.2929C89.1054 26.4804 89 26.7348 89 27V27Z" stroke="white" stroke-opacity="0.05"/>
<path d="M96 81L84 93L96 81Z" stroke="white" stroke-opacity="0.05"/>
<path d="M89 147C89 147.265 89.1054 147.52 89.2929 147.707C89.4804 147.895 89.7348 148 90 148C90.2652 148 90.5196 147.895 90.7071 147.707C90.8946 147.52 91 147.265 91 147C91 146.735 90.8946 146.48 90.7071 146.293C90.5196 146.105 90.2652 146 90 146C89.7348 146 89.4804 146.105 89.2929 146.293C89.1054 146.48 89 146.735 89 147V147Z" stroke="white" stroke-opacity="0.05"/>
<path d="M96 201L84 213L96 201Z" stroke="white" stroke-opacity="0.05"/>
<path d="M120 237L60 297L120 237Z" stroke="white" stroke-opacity="0.05" stroke-width="3"/>
<path d="M85 327C85 328.326 85.5268 329.598 86.4645 330.536C87.4021 331.473 88.6739 332 90 332C91.3261 332 92.5979 331.473 93.5355 330.536C94.4732 329.598 95 328.326 95 327C95 325.674 94.4732 324.402 93.5355 323.464C92.5979 322.527 91.3261 322 90 322C88.6739 322 87.4021 322.527 86.4645 323.464C85.5268 324.402 85 325.674 85 327V327Z" stroke="white" stroke-opacity="0.05"/>
<path d="M120 357L60 417L120 357Z" stroke="white" stroke-opacity="0.05" stroke-width="3"/>
<path d="M96 441L84 453L96 441Z" stroke="white" stroke-opacity="0.05"/>
<path d="M85 507C85 508.326 85.5268 509.598 86.4645 510.536C87.4021 511.473 88.6739 512 90 512C91.3261 512 92.5979 511.473 93.5355 510.536C94.4732 509.598 95 508.326 95 507C95 505.674 94.4732 504.402 93.5355 503.464C92.5979 502.527 91.3261 502 90 502C88.6739 502 87.4021 502.527 86.4645 503.464C85.5268 504.402 85 505.674 85 507V507Z" stroke="white" stroke-opacity="0.05"/>
<path d="M92 565L88 569L92 565Z" stroke="white" stroke-opacity="0.05"/>
<path d="M87 627C87 627.796 87.3161 628.559 87.8787 629.121C88.4413 629.684 89.2044 630 90 630C90.7956 630 91.5587 629.684 92.1213 629.121C92.6839 628.559 93 627.796 93 627C93 626.204 92.6839 625.441 92.1213 624.879C91.5587 624.316 90.7956 624 90 624C89.2044 624 88.4413 624.316 87.8787 624.879C87.3161 625.441 87 626.204 87 627V627Z" stroke="white" stroke-opacity="0.05"/>
<path d="M149 27C149 27.2652 149.105 27.5196 149.293 27.7071C149.48 27.8946 149.735 28 150 28C150.265 28 150.52 27.8946 150.707 27.7071C150.895 27.5196 151 27.2652 151 27C151 26.7348 150.895 26.4804 150.707 26.2929C150.52 26.1054 150.265 26 150 26C149.735 26 149.48 26.1054 149.293 26.2929C149.105 26.4804 149 26.7348 149 27V27Z" stroke="white" stroke-opacity="0.05"/>
<path d="M145 87C145 88.3261 145.527 89.5979 146.464 90.5355C147.402 91.4732 148.674 92 150 92C151.326 92 152.598 91.4732 153.536 90.5355C154.473 89.5979 155 88.3261 155 87C155 85.6739 154.473 84.4021 153.536 83.4645C152.598 82.5268 151.326 82 150 82C148.674 82 147.402 82.5268 146.464 83.4645C145.527 84.4021 145 85.6739 145 87V87Z" stroke="white" stroke-opacity="0.05"/>
<path d="M145 147C145 148.326 145.527 149.598 146.464 150.536C147.402 151.473 148.674 152 150 152C151.326 152 152.598 151.473 153.536 150.536C154.473 149.598 155 148.326 155 147C155 145.674 154.473 144.402 153.536 143.464C152.598 142.527 151.326 142 150 142C148.674 142 147.402 142.527 146.464 143.464C145.527 144.402 145 145.674 145 147V147Z" stroke="white" stroke-opacity="0.05"/>
<path d="M152 205L148 209L152 205Z" stroke="white" stroke-opacity="0.05"/>
<path d="M156 261L144 273L156 261Z" stroke="white" stroke-opacity="0.05"/>
<path d="M152 325L148 329L152 325Z" stroke="white" stroke-opacity="0.05"/>
<path d="M152 385L148 389L152 385Z" stroke="white" stroke-opacity="0.05"/>
<path d="M145 447C145 448.326 145.527 449.598 146.464 450.536C147.402 451.473 148.674 452 150 452C151.326 452 152.598 451.473 153.536 450.536C154.473 449.598 155 448.326 155 447C155 445.674 154.473 444.402 153.536 443.464C152.598 442.527 151.326 442 150 442C148.674 442 147.402 442.527 146.464 443.464C145.527 444.402 145 445.674 145 447V447Z" stroke="white" stroke-opacity="0.05"/>
<path d="M156 501L144 513L156 501Z" stroke="white" stroke-opacity="0.05"/>
<path d="M145 567C145 568.326 145.527 569.598 146.464 570.536C147.402 571.473 148.674 572 150 572C151.326 572 152.598 571.473 153.536 570.536C154.473 569.598 155 568.326 155 567C155 565.674 154.473 564.402 153.536 563.464C152.598 562.527 151.326 562 150 562C148.674 562 147.402 562.527 146.464 563.464C145.527 564.402 145 565.674 145 567V567Z" stroke="white" stroke-opacity="0.05"/>
<path d="M149 627C149 627.265 149.105 627.52 149.293 627.707C149.48 627.895 149.735 628 150 628C150.265 628 150.52 627.895 150.707 627.707C150.895 627.52 151 627.265 151 627C151 626.735 150.895 626.48 150.707 626.293C150.52 626.105 150.265 626 150 626C149.735 626 149.48 626.105 149.293 626.293C149.105 626.48 149 626.735 149 627V627Z" stroke="white" stroke-opacity="0.05"/>
<path d="M216 21L204 33L216 21Z" stroke="white" stroke-opacity="0.05"/>
<path d="M240 57L180 117L240 57Z" stroke="white" stroke-opacity="0.05" stroke-width="3"/>
<path d="M205 147C205 148.326 205.527 149.598 206.464 150.536C207.402 151.473 208.674 152 210 152C211.326 152 212.598 151.473 213.536 150.536C214.473 149.598 215 148.326 215 147C215 145.674 214.473 144.402 213.536 143.464C212.598 142.527 211.326 142 210 142C208.674 142 207.402 142.527 206.464 143.464C205.527 144.402 205 145.674 205 147V147Z" stroke="white" stroke-opacity="0.05"/>
<path d="M205 207C205 208.326 205.527 209.598 206.464 210.536C207.402 211.473 208.674 212 210 212C211.326 212 212.598 211.473 213.536 210.536C214.473 209.598 215 208.326 215 207C215 205.674 214.473 204.402 213.536 203.464C212.598 202.527 211.326 202 210 202C208.674 202 207.402 202.527 206.464 203.464C205.527 204.402 205 205.674 205 207V207Z" stroke="white" stroke-opacity="0.05"/>
<path d="M207 267C207 267.796 207.316 268.559 207.879 269.121C208.441 269.684 209.204 270 210 270C210.796 270 211.559 269.684 212.121 269.121C212.684 268.559 213 267.796 213 267C213 266.204 212.684 265.441 212.121 264.879C211.559 264.316 210.796 264 210 264C209.204 264 208.441 264.316 207.879 264.879C207.316 265.441 207 266.204 207 267V267Z" stroke="white" stroke-opacity="0.05"/>
<path d="M209 327C209 327.265 209.105 327.52 209.293 327.707C209.48 327.895 209.735 328 210 328C210.265 328 210.52 327.895 210.707 327.707C210.895 327.52 211 327.265 211 327C211 326.735 210.895 326.48 210.707 326.293C210.52 326.105 210.265 326 210 326C209.735 326 209.48 326.105 209.293 326.293C209.105 326.48 209 326.735 209 327V327Z" stroke="white" stroke-opacity="0.05"/>
<path d="M207 387C207 387.796 207.316 388.559 207.879 389.121C208.441 389.684 209.204 390 210 390C210.796 390 211.559 389.684 212.121 389.121C212.684 388.559 213 387.796 213 387C213 386.204 212.684 385.441 212.121 384.879C211.559 384.316 210.796 384 210 384C209.204 384 208.441 384.316 207.879 384.879C207.316 385.441 207 386.204 207 387V387Z" stroke="white" stroke-opacity="0.05"/>
<path d="M212 445L208 449L212 445Z" stroke="white" stroke-opacity="0.05"/>
<path d="M216 501L204 513L216 501Z" stroke="white" stroke-opacity="0.05"/>
<path d="M212 565L208 569L212 565Z" stroke="white" stroke-opacity="0.05"/>
<path d="M205 627C205 628.326 205.527 629.598 206.464 630.536C207.402 631.473 208.674 632 210 632C211.326 632 212.598 631.473 213.536 630.536C214.473 629.598 215 628.326 215 627C215 625.674 214.473 624.402 213.536 623.464C212.598 622.527 211.326 622 210 622C208.674 622 207.402 622.527 206.464 623.464C205.527 624.402 205 625.674 205 627V627Z" stroke="white" stroke-opacity="0.05"/>
<path d="M276 21L264 33L276 21Z" stroke="white" stroke-opacity="0.05"/>
<path d="M276 81L264 93L276 81Z" stroke="white" stroke-opacity="0.05"/>
<path d="M276 141L264 153L276 141Z" stroke="white" stroke-opacity="0.05"/>
<path d="M267 207C267 207.796 267.316 208.559 267.879 209.121C268.441 209.684 269.204 210 270 210C270.796 210 271.559 209.684 272.121 209.121C272.684 208.559 273 207.796 273 207C273 206.204 272.684 205.441 272.121 204.879C271.559 204.316 270.796 204 270 204C269.204 204 268.441 204.316 267.879 204.879C267.316 205.441 267 206.204 267 207V207Z" stroke="white" stroke-opacity="0.05"/>
<path d="M276 261L264 273L276 261Z" stroke="white" stroke-opacity="0.05"/>
<path d="M276 321L264 333L276 321Z" stroke="white" stroke-opacity="0.05"/>
<path d="M272 385L268 389L272 385Z" stroke="white" stroke-opacity="0.05"/>
<path d="M272 445L268 449L272 445Z" stroke="white" stroke-opacity="0.05"/>
<path d="M265 507C265 508.326 265.527 509.598 266.464 510.536C267.402 511.473 268.674 512 270 512C271.326 512 272.598 511.473 273.536 510.536C274.473 509.598 275 508.326 275 507C275 505.674 274.473 504.402 273.536 503.464C272.598 502.527 271.326 502 270 502C268.674 502 267.402 502.527 266.464 503.464C265.527 504.402 265 505.674 265 507V507Z" stroke="white" stroke-opacity="0.05"/>
<path d="M276 561L264 573L276 561Z" stroke="white" stroke-opacity="0.05"/>
<path d="M269 627C269 627.265 269.105 627.52 269.293 627.707C269.48 627.895 269.735 628 270 628C270.265 628 270.52 627.895 270.707 627.707C270.895 627.52 271 627.265 271 627C271 626.735 270.895 626.48 270.707 626.293C270.52 626.105 270.265 626 270 626C269.735 626 269.48 626.105 269.293 626.293C269.105 626.48 269 626.735 269 627V627Z" stroke="white" stroke-opacity="0.05"/>
<path d="M332 25L328 29L332 25Z" stroke="white" stroke-opacity="0.05"/>
<path d="M325 87C325 88.3261 325.527 89.5979 326.464 90.5355C327.402 91.4732 328.674 92 330 92C331.326 92 332.598 91.4732 333.536 90.5355C334.473 89.5979 335 88.3261 335 87C335 85.6739 334.473 84.4021 333.536 83.4645C332.598 82.5268 331.326 82 330 82C328.674 82 327.402 82.5268 326.464 83.4645C325.527 84.4021 325 85.6739 325 87V87Z" stroke="white" stroke-opacity="0.05"/>
<path d="M325 147C325 148.326 325.527 149.598 326.464 150.536C327.402 151.473 328.674 152 330 152C331.326 152 332.598 151.473 333.536 150.536C334.473 149.598 335 148.326 335 147C335 145.674 334.473 144.402 333.536 143.464C332.598 142.527 331.326 142 330 142C328.674 142 327.402 142.527 326.464 143.464C325.527 144.402 325 145.674 325 147V147Z" stroke="white" stroke-opacity="0.05"/>
<path d="M332 205L328 209L332 205Z" stroke="white" stroke-opacity="0.05"/>
<path d="M325 267C325 268.326 325.527 269.598 326.464 270.536C327.402 271.473 328.674 272 330 272C331.326 272 332.598 271.473 333.536 270.536C334.473 269.598 335 268.326 335 267C335 265.674 334.473 264.402 333.536 263.464C332.598 262.527 331.326 262 330 262C328.674 262 327.402 262.527 326.464 263.464C325.527 264.402 325 265.674 325 267V267Z" stroke="white" stroke-opacity="0.05"/>
<path d="M336 321L324 333L336 321Z" stroke="white" stroke-opacity="0.05"/>
<path d="M327 387C327 387.796 327.316 388.559 327.879 389.121C328.441 389.684 329.204 390 330 390C330.796 390 331.559 389.684 332.121 389.121C332.684 388.559 333 387.796 333 387C333 386.204 332.684 385.441 332.121 384.879C331.559 384.316 330.796 384 330 384C329.204 384 328.441 384.316 327.879 384.879C327.316 385.441 327 386.204 327 387V387Z" stroke="white" stroke-opacity="0.05"/>
<path d="M332 445L328 449L332 445Z" stroke="white" stroke-opacity="0.05"/>
<path d="M325 507C325 508.326 325.527 509.598 326.464 510.536C327.402 511.473 328.674 512 330 512C331.326 512 332.598 511.473 333.536 510.536C334.473 509.598 335 508.326 335 507C335 505.674 334.473 504.402 333.536 503.464C332.598 502.527 331.326 502 330 502C328.674 502 327.402 502.527 326.464 503.464C325.527 504.402 325 505.674 325 507V507Z" stroke="white" stroke-opacity="0.05"/>
<path d="M336 561L324 573L336 561Z" stroke="white" stroke-opacity="0.05"/>
<path d="M336 621L324 633L336 621Z" stroke="white" stroke-opacity="0.05"/>
<path d="M387 27C387 27.7956 387.316 28.5587 387.879 29.1213C388.441 29.6839 389.204 30 390 30C390.796 30 391.559 29.6839 392.121 29.1213C392.684 28.5587 393 27.7956 393 27C393 26.2044 392.684 25.4413 392.121 24.8787C391.559 24.3161 390.796 24 390 24C389.204 24 388.441 24.3161 387.879 24.8787C387.316 25.4413 387 26.2044 387 27V27Z" stroke="white" stroke-opacity="0.05"/>
<path d="M392 85L388 89L392 85Z" stroke="white" stroke-opacity="0.05"/>
<path d="M392 145L388 149L392 145Z" stroke="white" stroke-opacity="0.05"/>
<path d="M385 207C385 208.326 385.527 209.598 386.464 210.536C387.402 211.473 388.674 212 390 212C391.326 212 392.598 211.473 393.536 210.536C394.473 209.598 395 208.326 395 207C395 205.674 394.473 204.402 393.536 203.464C392.598 202.527 391.326 202 390 202C388.674 202 387.402 202.527 386.464 203.464C385.527 204.402 385 205.674 385 207V207Z" stroke="white" stroke-opacity="0.05"/>
<path d="M420 237L360 297L420 237Z" stroke="white" stroke-opacity="0.05" stroke-width="3"/>
<path d="M396 321L384 333L396 321Z" stroke="white" stroke-opacity="0.05"/>
<path d="M389 387C389 387.265 389.105 387.52 389.293 387.707C389.48 387.895 389.735 388 390 388C390.265 388 390.52 387.895 390.707 387.707C390.895 387.52 391 387.265 391 387C391 386.735 390.895 386.48 390.707 386.293C390.52 386.105 390.265 386 390 386C389.735 386 389.48 386.105 389.293 386.293C389.105 386.48 389 386.735 389 387V387Z" stroke="white" stroke-opacity="0.05"/>
<path d="M387 447C387 447.796 387.316 448.559 387.879 449.121C388.441 449.684 389.204 450 390 450C390.796 450 391.559 449.684 392.121 449.121C392.684 448.559 393 447.796 393 447C393 446.204 392.684 445.441 392.121 444.879C391.559 444.316 390.796 444 390 444C389.204 444 388.441 444.316 387.879 444.879C387.316 445.441 387 446.204 387 447V447Z" stroke="white" stroke-opacity="0.05"/>
<path d="M385 507C385 508.326 385.527 509.598 386.464 510.536C387.402 511.473 388.674 512 390 512C391.326 512 392.598 511.473 393.536 510.536C394.473 509.598 395 508.326 395 507C395 505.674 394.473 504.402 393.536 503.464C392.598 502.527 391.326 502 390 502C388.674 502 387.402 502.527 386.464 503.464C385.527 504.402 385 505.674 385 507V507Z" stroke="white" stroke-opacity="0.05"/>
<path d="M420 537L360 597L420 537Z" stroke="white" stroke-opacity="0.05" stroke-width="3"/>
<path d="M389 627C389 627.265 389.105 627.52 389.293 627.707C389.48 627.895 389.735 628 390 628C390.265 628 390.52 627.895 390.707 627.707C390.895 627.52 391 627.265 391 627C391 626.735 390.895 626.48 390.707 626.293C390.52 626.105 390.265 626 390 626C389.735 626 389.48 626.105 389.293 626.293C389.105 626.48 389 626.735 389 627V627Z" stroke="white" stroke-opacity="0.05"/>
<path d="M456 21L444 33L456 21Z" stroke="white" stroke-opacity="0.05"/>
<path d="M452 85L448 89L452 85Z" stroke="white" stroke-opacity="0.05"/>
<path d="M456 141L444 153L456 141Z" stroke="white" stroke-opacity="0.05"/>
<path d="M456 201L444 213L456 201Z" stroke="white" stroke-opacity="0.05"/>
<path d="M445 267C445 268.326 445.527 269.598 446.464 270.536C447.402 271.473 448.674 272 450 272C451.326 272 452.598 271.473 453.536 270.536C454.473 269.598 455 268.326 455 267C455 265.674 454.473 264.402 453.536 263.464C452.598 262.527 451.326 262 450 262C448.674 262 447.402 262.527 446.464 263.464C445.527 264.402 445 265.674 445 267V267Z" stroke="white" stroke-opacity="0.05"/>
<path d="M456 321L444 333L456 321Z" stroke="white" stroke-opacity="0.05"/>
<path d="M456 381L444 393L456 381Z" stroke="white" stroke-opacity="0.05"/>
<path d="M456 441L444 453L456 441Z" stroke="white" stroke-opacity="0.05"/>
<path d="M456 501L444 513L456 501Z" stroke="white" stroke-opacity="0.05"/>
<path d="M456 561L444 573L456 561Z" stroke="white" stroke-opacity="0.05"/>
<path d="M445 627C445 628.326 445.527 629.598 446.464 630.536C447.402 631.473 448.674 632 450 632C451.326 632 452.598 631.473 453.536 630.536C454.473 629.598 455 628.326 455 627C455 625.674 454.473 624.402 453.536 623.464C452.598 622.527 451.326 622 450 622C448.674 622 447.402 622.527 446.464 623.464C445.527 624.402 445 625.674 445 627V627Z" stroke="white" stroke-opacity="0.05"/>
<path d="M505 27C505 28.3261 505.527 29.5979 506.464 30.5355C507.402 31.4732 508.674 32 510 32C511.326 32 512.598 31.4732 513.536 30.5355C514.473 29.5979 515 28.3261 515 27C515 25.6739 514.473 24.4021 513.536 23.4645C512.598 22.5268 511.326 22 510 22C508.674 22 507.402 22.5268 506.464 23.4645C505.527 24.4021 505 25.6739 505 27V27Z" stroke="white" stroke-opacity="0.05"/>
<path d="M516 81L504 93L516 81Z" stroke="white" stroke-opacity="0.05"/>
<path d="M516 141L504 153L516 141Z" stroke="white" stroke-opacity="0.05"/>
<path d="M516 201L504 213L516 201Z" stroke="white" stroke-opacity="0.05"/>
<path d="M516 261L504 273L516 261Z" stroke="white" stroke-opacity="0.05"/>
<path d="M540 297L480 357L540 297Z" stroke="white" stroke-opacity="0.05" stroke-width="3"/>
<path d="M507 387C507 387.796 507.316 388.559 507.879 389.121C508.441 389.684 509.204 390 510 390C510.796 390 511.559 389.684 512.121 389.121C512.684 388.559 513 387.796 513 387C513 386.204 512.684 385.441 512.121 384.879C511.559 384.316 510.796 384 510 384C509.204 384 508.441 384.316 507.879 384.879C507.316 385.441 507 386.204 507 387V387Z" stroke="white" stroke-opacity="0.05"/>
<path d="M512 445L508 449L512 445Z" stroke="white" stroke-opacity="0.05"/>
<path d="M516 501L504 513L516 501Z" stroke="white" stroke-opacity="0.05"/>
<path d="M505 567C505 568.326 505.527 569.598 506.464 570.536C507.402 571.473 508.674 572 510 572C511.326 572 512.598 571.473 513.536 570.536C514.473 569.598 515 568.326 515 567C515 565.674 514.473 564.402 513.536 563.464C512.598 562.527 511.326 562 510 562C508.674 562 507.402 562.527 506.464 563.464C505.527 564.402 505 565.674 505 567V567Z" stroke="white" stroke-opacity="0.05"/>
<path d="M540 597L480 657L540 597Z" stroke="white" stroke-opacity="0.05" stroke-width="3"/>
<path d="M576 21L564 33L576 21Z" stroke="white" stroke-opacity="0.05"/>
<path d="M567 87C567 87.7956 567.316 88.5587 567.879 89.1213C568.441 89.6839 569.204 90 570 90C570.796 90 571.559 89.6839 572.121 89.1213C572.684 88.5587 573 87.7956 573 87C573 86.2044 572.684 85.4413 572.121 84.8787C571.559 84.3161 570.796 84 570 84C569.204 84 568.441 84.3161 567.879 84.8787C567.316 85.4413 567 86.2044 567 87V87Z" stroke="white" stroke-opacity="0.05"/>
<path d="M565 147C565 148.326 565.527 149.598 566.464 150.536C567.402 151.473 568.674 152 570 152C571.326 152 572.598 151.473 573.536 150.536C574.473 149.598 575 148.326 575 147C575 145.674 574.473 144.402 573.536 143.464C572.598 142.527 571.326 142 570 142C568.674 142 567.402 142.527 566.464 143.464C565.527 144.402 565 145.674 565 147V147Z" stroke="white" stroke-opacity="0.05"/>
<path d="M565 207C565 208.326 565.527 209.598 566.464 210.536C567.402 211.473 568.674 212 570 212C571.326 212 572.598 211.473 573.536 210.536C574.473 209.598 575 208.326 575 207C575 205.674 574.473 204.402 573.536 203.464C572.598 202.527 571.326 202 570 202C568.674 202 567.402 202.527 566.464 203.464C565.527 204.402 565 205.674 565 207V207Z" stroke="white" stroke-opacity="0.05"/>
<path d="M565 267C565 268.326 565.527 269.598 566.464 270.536C567.402 271.473 568.674 272 570 272C571.326 272 572.598 271.473 573.536 270.536C574.473 269.598 575 268.326 575 267C575 265.674 574.473 264.402 573.536 263.464C572.598 262.527 571.326 262 570 262C568.674 262 567.402 262.527 566.464 263.464C565.527 264.402 565 265.674 565 267V267Z" stroke="white" stroke-opacity="0.05"/>
<path d="M576 321L564 333L576 321Z" stroke="white" stroke-opacity="0.05"/>
<path d="M576 381L564 393L576 381Z" stroke="white" stroke-opacity="0.05"/>
<path d="M565 447C565 448.326 565.527 449.598 566.464 450.536C567.402 451.473 568.674 452 570 452C571.326 452 572.598 451.473 573.536 450.536C574.473 449.598 575 448.326 575 447C575 445.674 574.473 444.402 573.536 443.464C572.598 442.527 571.326 442 570 442C568.674 442 567.402 442.527 566.464 443.464C565.527 444.402 565 445.674 565 447V447Z" stroke="white" stroke-opacity="0.05"/>
<path d="M565 507C565 508.326 565.527 509.598 566.464 510.536C567.402 511.473 568.674 512 570 512C571.326 512 572.598 511.473 573.536 510.536C574.473 509.598 575 508.326 575 507C575 505.674 574.473 504.402 573.536 503.464C572.598 502.527 571.326 502 570 502C568.674 502 567.402 502.527 566.464 503.464C565.527 504.402 565 505.674 565 507V507Z" stroke="white" stroke-opacity="0.05"/>
<path d="M565 567C565 568.326 565.527 569.598 566.464 570.536C567.402 571.473 568.674 572 570 572C571.326 572 572.598 571.473 573.536 570.536C574.473 569.598 575 568.326 575 567C575 565.674 574.473 564.402 573.536 563.464C572.598 562.527 571.326 562 570 562C568.674 562 567.402 562.527 566.464 563.464C565.527 564.402 565 565.674 565 567V567Z" stroke="white" stroke-opacity="0.05"/>
<path d="M567 627C567 627.796 567.316 628.559 567.879 629.121C568.441 629.684 569.204 630 570 630C570.796 630 571.559 629.684 572.121 629.121C572.684 628.559 573 627.796 573 627C573 626.204 572.684 625.441 572.121 624.879C571.559 624.316 570.796 624 570 624C569.204 624 568.441 624.316 567.879 624.879C567.316 625.441 567 626.204 567 627V627Z" stroke="white" stroke-opacity="0.05"/>
<path d="M627 27C627 27.7956 627.316 28.5587 627.879 29.1213C628.441 29.6839 629.204 30 630 30C630.796 30 631.559 29.6839 632.121 29.1213C632.684 28.5587 633 27.7956 633 27C633 26.2044 632.684 25.4413 632.121 24.8787C631.559 24.3161 630.796 24 630 24C629.204 24 628.441 24.3161 627.879 24.8787C627.316 25.4413 627 26.2044 627 27V27Z" stroke="white" stroke-opacity="0.05"/>
<path d="M629 87C629 87.2652 629.105 87.5196 629.293 87.7071C629.48 87.8946 629.735 88 630 88C630.265 88 630.52 87.8946 630.707 87.7071C630.895 87.5196 631 87.2652 631 87C631 86.7348 630.895 86.4804 630.707 86.2929C630.52 86.1054 630.265 86 630 86C629.735 86 629.48 86.1054 629.293 86.2929C629.105 86.4804 629 86.7348 629 87V87Z" stroke="white" stroke-opacity="0.05"/>
<path d="M632 145L628 149L632 145Z" stroke="white" stroke-opacity="0.05"/>
<path d="M625 207C625 208.326 625.527 209.598 626.464 210.536C627.402 211.473 628.674 212 630 212C631.326 212 632.598 211.473 633.536 210.536C634.473 209.598 635 208.326 635 207C635 205.674 634.473 204.402 633.536 203.464C632.598 202.527 631.326 202 630 202C628.674 202 627.402 202.527 626.464 203.464C625.527 204.402 625 205.674 625 207V207Z" stroke="white" stroke-opacity="0.05"/>
<path d="M625 267C625 268.326 625.527 269.598 626.464 270.536C627.402 271.473 628.674 272 630 272C631.326 272 632.598 271.473 633.536 270.536C634.473 269.598 635 268.326 635 267C635 265.674 634.473 264.402 633.536 263.464C632.598 262.527 631.326 262 630 262C628.674 262 627.402 262.527 626.464 263.464C625.527 264.402 625 265.674 625 267V267Z" stroke="white" stroke-opacity="0.05"/>
<path d="M632 325L628 329L632 325Z" stroke="white" stroke-opacity="0.05"/>
<path d="M636 381L624 393L636 381Z" stroke="white" stroke-opacity="0.05"/>
<path d="M636 441L624 453L636 441Z" stroke="white" stroke-opacity="0.05"/>
<path d="M636 501L624 513L636 501Z" stroke="white" stroke-opacity="0.05"/>
<path d="M636 561L624 573L636 561Z" stroke="white" stroke-opacity="0.05"/>
<path d="M636 621L624 633L636 621Z" stroke="white" stroke-opacity="0.05"/>
<path d="M685 27C685 28.3261 685.527 29.5979 686.464 30.5355C687.402 31.4732 688.674 32 690 32C691.326 32 692.598 31.4732 693.536 30.5355C694.473 29.5979 695 28.3261 695 27C695 25.6739 694.473 24.4021 693.536 23.4645C692.598 22.5268 691.326 22 690 22C688.674 22 687.402 22.5268 686.464 23.4645C685.527 24.4021 685 25.6739 685 27V27Z" stroke="white" stroke-opacity="0.05"/>
<path d="M696 81L684 93L696 81Z" stroke="white" stroke-opacity="0.05"/>
<path d="M696 141L684 153L696 141Z" stroke="white" stroke-opacity="0.05"/>
<path d="M685 207C685 208.326 685.527 209.598 686.464 210.536C687.402 211.473 688.674 212 690 212C691.326 212 692.598 211.473 693.536 210.536C694.473 209.598 695 208.326 695 207C695 205.674 694.473 204.402 693.536 203.464C692.598 202.527 691.326 202 690 202C688.674 202 687.402 202.527 686.464 203.464C685.527 204.402 685 205.674 685 207V207Z" stroke="white" stroke-opacity="0.05"/>
<path d="M689 267C689 267.265 689.105 267.52 689.293 267.707C689.48 267.895 689.735 268 690 268C690.265 268 690.52 267.895 690.707 267.707C690.895 267.52 691 267.265 691 267C691 266.735 690.895 266.48 690.707 266.293C690.52 266.105 690.265 266 690 266C689.735 266 689.48 266.105 689.293 266.293C689.105 266.48 689 266.735 689 267V267Z" stroke="white" stroke-opacity="0.05"/>
<path d="M689 327C689 327.265 689.105 327.52 689.293 327.707C689.48 327.895 689.735 328 690 328C690.265 328 690.52 327.895 690.707 327.707C690.895 327.52 691 327.265 691 327C691 326.735 690.895 326.48 690.707 326.293C690.52 326.105 690.265 326 690 326C689.735 326 689.48 326.105 689.293 326.293C689.105 326.48 689 326.735 689 327V327Z" stroke="white" stroke-opacity="0.05"/>
<path d="M720 357L660 417L720 357Z" stroke="white" stroke-opacity="0.05" stroke-width="3"/>
<path d="M692 445L688 449L692 445Z" stroke="white" stroke-opacity="0.05"/>
<path d="M696 501L684 513L696 501Z" stroke="white" stroke-opacity="0.05"/>
<path d="M687 567C687 567.796 687.316 568.559 687.879 569.121C688.441 569.684 689.204 570 690 570C690.796 570 691.559 569.684 692.121 569.121C692.684 568.559 693 567.796 693 567C693 566.204 692.684 565.441 692.121 564.879C691.559 564.316 690.796 564 690 564C689.204 564 688.441 564.316 687.879 564.879C687.316 565.441 687 566.204 687 567V567Z" stroke="white" stroke-opacity="0.05"/>
<path d="M696 621L684 633L696 621Z" stroke="white" stroke-opacity="0.05"/>
<path d="M745 27C745 28.3261 745.527 29.5979 746.464 30.5355C747.402 31.4732 748.674 32 750 32C751.326 32 752.598 31.4732 753.536 30.5355C754.473 29.5979 755 28.3261 755 27C755 25.6739 754.473 24.4021 753.536 23.4645C752.598 22.5268 751.326 22 750 22C748.674 22 747.402 22.5268 746.464 23.4645C745.527 24.4021 745 25.6739 745 27V27Z" stroke="white" stroke-opacity="0.05"/>
<path d="M756 81L744 93L756 81Z" stroke="white" stroke-opacity="0.05"/>
<path d="M756 141L744 153L756 141Z" stroke="white" stroke-opacity="0.05"/>
<path d="M749 207C749 207.265 749.105 207.52 749.293 207.707C749.48 207.895 749.735 208 750 208C750.265 208 750.52 207.895 750.707 207.707C750.895 207.52 751 207.265 751 207C751 206.735 750.895 206.48 750.707 206.293C750.52 206.105 750.265 206 750 206C749.735 206 749.48 206.105 749.293 206.293C749.105 206.48 749 206.735 749 207V207Z" stroke="white" stroke-opacity="0.05"/>
<path d="M745 267C745 268.326 745.527 269.598 746.464 270.536C747.402 271.473 748.674 272 750 272C751.326 272 752.598 271.473 753.536 270.536C754.473 269.598 755 268.326 755 267C755 265.674 754.473 264.402 753.536 263.464C752.598 262.527 751.326 262 750 262C748.674 262 747.402 262.527 746.464 263.464C745.527 264.402 745 265.674 745 267V267Z" stroke="white" stroke-opacity="0.05"/>
<path d="M745 327C745 328.326 745.527 329.598 746.464 330.536C747.402 331.473 748.674 332 750 332C751.326 332 752.598 331.473 753.536 330.536C754.473 329.598 755 328.326 755 327C755 325.674 754.473 324.402 753.536 323.464C752.598 322.527 751.326 322 750 322C748.674 322 747.402 322.527 746.464 323.464C745.527 324.402 745 325.674 745 327V327Z" stroke="white" stroke-opacity="0.05"/>
<path d="M752 385L748 389L752 385Z" stroke="white" stroke-opacity="0.05"/>
<path d="M752 445L748 449L752 445Z" stroke="white" stroke-opacity="0.05"/>
<path d="M756 501L744 513L756 501Z" stroke="white" stroke-opacity="0.05"/>
<path d="M745 567C745 568.326 745.527 569.598 746.464 570.536C747.402 571.473 748.674 572 750 572C751.326 572 752.598 571.473 753.536 570.536C754.473 569.598 755 568.326 755 567C755 565.674 754.473 564.402 753.536 563.464C752.598 562.527 751.326 562 750 562C748.674 562 747.402 562.527 746.464 563.464C745.527 564.402 745 565.674 745 567V567Z" stroke="white" stroke-opacity="0.05"/>
<path d="M745 627C745 628.326 745.527 629.598 746.464 630.536C747.402 631.473 748.674 632 750 632C751.326 632 752.598 631.473 753.536 630.536C754.473 629.598 755 628.326 755 627C755 625.674 754.473 624.402 753.536 623.464C752.598 622.527 751.326 622 750 622C748.674 622 747.402 622.527 746.464 623.464C745.527 624.402 745 625.674 745 627V627Z" stroke="white" stroke-opacity="0.05"/>
<path d="M809 27C809 27.2652 809.105 27.5196 809.293 27.7071C809.48 27.8946 809.735 28 810 28C810.265 28 810.52 27.8946 810.707 27.7071C810.895 27.5196 811 27.2652 811 27C811 26.7348 810.895 26.4804 810.707 26.2929C810.52 26.1054 810.265 26 810 26C809.735 26 809.48 26.1054 809.293 26.2929C809.105 26.4804 809 26.7348 809 27V27Z" stroke="white" stroke-opacity="0.05"/>
<path d="M816 81L804 93L816 81Z" stroke="white" stroke-opacity="0.05"/>
<path d="M809 147C809 147.265 809.105 147.52 809.293 147.707C809.48 147.895 809.735 148 810 148C810.265 148 810.52 147.895 810.707 147.707C810.895 147.52 811 147.265 811 147C811 146.735 810.895 146.48 810.707 146.293C810.52 146.105 810.265 146 810 146C809.735 146 809.48 146.105 809.293 146.293C809.105 146.48 809 146.735 809 147V147Z" stroke="white" stroke-opacity="0.05"/>
<path d="M816 201L804 213L816 201Z" stroke="white" stroke-opacity="0.05"/>
<path d="M840 237L780 297L840 237Z" stroke="white" stroke-opacity="0.05" stroke-width="3"/>
<path d="M805 327C805 328.326 805.527 329.598 806.464 330.536C807.402 331.473 808.674 332 810 332C811.326 332 812.598 331.473 813.536 330.536C814.473 329.598 815 328.326 815 327C815 325.674 814.473 324.402 813.536 323.464C812.598 322.527 811.326 322 810 322C808.674 322 807.402 322.527 806.464 323.464C805.527 324.402 805 325.674 805 327V327Z" stroke="white" stroke-opacity="0.05"/>
<path d="M840 357L780 417L840 357Z" stroke="white" stroke-opacity="0.05" stroke-width="3"/>
<path d="M816 441L804 453L816 441Z" stroke="white" stroke-opacity="0.05"/>
<path d="M805 507C805 508.326 805.527 509.598 806.464 510.536C807.402 511.473 808.674 512 810 512C811.326 512 812.598 511.473 813.536 510.536C814.473 509.598 815 508.326 815 507C815 505.674 814.473 504.402 813.536 503.464C812.598 502.527 811.326 502 810 502C808.674 502 807.402 502.527 806.464 503.464C805.527 504.402 805 505.674 805 507V507Z" stroke="white" stroke-opacity="0.05"/>
<path d="M812 565L808 569L812 565Z" stroke="white" stroke-opacity="0.05"/>
<path d="M807 627C807 627.796 807.316 628.559 807.879 629.121C808.441 629.684 809.204 630 810 630C810.796 630 811.559 629.684 812.121 629.121C812.684 628.559 813 627.796 813 627C813 626.204 812.684 625.441 812.121 624.879C811.559 624.316 810.796 624 810 624C809.204 624 808.441 624.316 807.879 624.879C807.316 625.441 807 626.204 807 627V627Z" stroke="white" stroke-opacity="0.05"/>
<path d="M869 27C869 27.2652 869.105 27.5196 869.293 27.7071C869.48 27.8946 869.735 28 870 28C870.265 28 870.52 27.8946 870.707 27.7071C870.895 27.5196 871 27.2652 871 27C871 26.7348 870.895 26.4804 870.707 26.2929C870.52 26.1054 870.265 26 870 26C869.735 26 869.48 26.1054 869.293 26.2929C869.105 26.4804 869 26.7348 869 27V27Z" stroke="white" stroke-opacity="0.05"/>
<path d="M865 87C865 88.3261 865.527 89.5979 866.464 90.5355C867.402 91.4732 868.674 92 870 92C871.326 92 872.598 91.4732 873.536 90.5355C874.473 89.5979 875 88.3261 875 87C875 85.6739 874.473 84.4021 873.536 83.4645C872.598 82.5268 871.326 82 870 82C868.674 82 867.402 82.5268 866.464 83.4645C865.527 84.4021 865 85.6739 865 87V87Z" stroke="white" stroke-opacity="0.05"/>
<path d="M865 147C865 148.326 865.527 149.598 866.464 150.536C867.402 151.473 868.674 152 870 152C871.326 152 872.598 151.473 873.536 150.536C874.473 149.598 875 148.326 875 147C875 145.674 874.473 144.402 873.536 143.464C872.598 142.527 871.326 142 870 142C868.674 142 867.402 142.527 866.464 143.464C865.527 144.402 865 145.674 865 147V147Z" stroke="white" stroke-opacity="0.05"/>
<path d="M872 205L868 209L872 205Z" stroke="white" stroke-opacity="0.05"/>
<path d="M876 261L864 273L876 261Z" stroke="white" stroke-opacity="0.05"/>
<path d="M872 325L868 329L872 325Z" stroke="white" stroke-opacity="0.05"/>
<path d="M872 385L868 389L872 385Z" stroke="white" stroke-opacity="0.05"/>
<path d="M865 447C865 448.326 865.527 449.598 866.464 450.536C867.402 451.473 868.674 452 870 452C871.326 452 872.598 451.473 873.536 450.536C874.473 449.598 875 448.326 875 447C875 445.674 874.473 444.402 873.536 443.464C872.598 442.527 871.326 442 870 442C868.674 442 867.402 442.527 866.464 443.464C865.527 444.402 865 445.674 865 447V447Z" stroke="white" stroke-opacity="0.05"/>
<path d="M876 501L864 513L876 501Z" stroke="white" stroke-opacity="0.05"/>
<path d="M865 567C865 568.326 865.527 569.598 866.464 570.536C867.402 571.473 868.674 572 870 572C871.326 572 872.598 571.473 873.536 570.536C874.473 569.598 875 568.326 875 567C875 565.674 874.473 564.402 873.536 563.464C872.598 562.527 871.326 562 870 562C868.674 562 867.402 562.527 866.464 563.464C865.527 564.402 865 565.674 865 567V567Z" stroke="white" stroke-opacity="0.05"/>
<path d="M869 627C869 627.265 869.105 627.52 869.293 627.707C869.48 627.895 869.735 628 870 628C870.265 628 870.52 627.895 870.707 627.707C870.895 627.52 871 627.265 871 627C871 626.735 870.895 626.48 870.707 626.293C870.52 626.105 870.265 626 870 626C869.735 626 869.48 626.105 869.293 626.293C869.105 626.48 869 626.735 869 627V627Z" stroke="white" stroke-opacity="0.05"/>
<path d="M936 21L924 33L936 21Z" stroke="white" stroke-opacity="0.05"/>
<path d="M960 57L900 117L960 57Z" stroke="white" stroke-opacity="0.05" stroke-width="3"/>
<path d="M925 147C925 148.326 925.527 149.598 926.464 150.536C927.402 151.473 928.674 152 930 152C931.326 152 932.598 151.473 933.536 150.536C934.473 149.598 935 148.326 935 147C935 145.674 934.473 144.402 933.536 143.464C932.598 142.527 931.326 142 930 142C928.674 142 927.402 142.527 926.464 143.464C925.527 144.402 925 145.674 925 147V147Z" stroke="white" stroke-opacity="0.05"/>
<path d="M925 207C925 208.326 925.527 209.598 926.464 210.536C927.402 211.473 928.674 212 930 212C931.326 212 932.598 211.473 933.536 210.536C934.473 209.598 935 208.326 935 207C935 205.674 934.473 204.402 933.536 203.464C932.598 202.527 931.326 202 930 202C928.674 202 927.402 202.527 926.464 203.464C925.527 204.402 925 205.674 925 207V207Z" stroke="white" stroke-opacity="0.05"/>
<path d="M927 267C927 267.796 927.316 268.559 927.879 269.121C928.441 269.684 929.204 270 930 270C930.796 270 931.559 269.684 932.121 269.121C932.684 268.559 933 267.796 933 267C933 266.204 932.684 265.441 932.121 264.879C931.559 264.316 930.796 264 930 264C929.204 264 928.441 264.316 927.879 264.879C927.316 265.441 927 266.204 927 267V267Z" stroke="white" stroke-opacity="0.05"/>
<path d="M929 327C929 327.265 929.105 327.52 929.293 327.707C929.48 327.895 929.735 328 930 328C930.265 328 930.52 327.895 930.707 327.707C930.895 327.52 931 327.265 931 327C931 326.735 930.895 326.48 930.707 326.293C930.52 326.105 930.265 326 930 326C929.735 326 929.48 326.105 929.293 326.293C929.105 326.48 929 326.735 929 327V327Z" stroke="white" stroke-opacity="0.05"/>
<path d="M927 387C927 387.796 927.316 388.559 927.879 389.121C928.441 389.684 929.204 390 930 390C930.796 390 931.559 389.684 932.121 389.121C932.684 388.559 933 387.796 933 387C933 386.204 932.684 385.441 932.121 384.879C931.559 384.316 930.796 384 930 384C929.204 384 928.441 384.316 927.879 384.879C927.316 385.441 927 386.204 927 387V387Z" stroke="white" stroke-opacity="0.05"/>
<path d="M932 445L928 449L932 445Z" stroke="white" stroke-opacity="0.05"/>
<path d="M936 501L924 513L936 501Z" stroke="white" stroke-opacity="0.05"/>
<path d="M932 565L928 569L932 565Z" stroke="white" stroke-opacity="0.05"/>
<path d="M925 627C925 628.326 925.527 629.598 926.464 630.536C927.402 631.473 928.674 632 930 632C931.326 632 932.598 631.473 933.536 630.536C934.473 629.598 935 628.326 935 627C935 625.674 934.473 624.402 933.536 623.464C932.598 622.527 931.326 622 930 622C928.674 622 927.402 622.527 926.464 623.464C925.527 624.402 925 625.674 925 627V627Z" stroke="white" stroke-opacity="0.05"/>
<path d="M996 21L984 33L996 21Z" stroke="white" stroke-opacity="0.05"/>
<path d="M996 81L984 93L996 81Z" stroke="white" stroke-opacity="0.05"/>
<path d="M996 141L984 153L996 141Z" stroke="white" stroke-opacity="0.05"/>
<path d="M987 207C987 207.796 987.316 208.559 987.879 209.121C988.441 209.684 989.204 210 990 210C990.796 210 991.559 209.684 992.121 209.121C992.684 208.559 993 207.796 993 207C993 206.204 992.684 205.441 992.121 204.879C991.559 204.316 990.796 204 990 204C989.204 204 988.441 204.316 987.879 204.879C987.316 205.441 987 206.204 987 207V207Z" stroke="white" stroke-opacity="0.05"/>
<path d="M996 261L984 273L996 261Z" stroke="white" stroke-opacity="0.05"/>
<path d="M996 321L984 333L996 321Z" stroke="white" stroke-opacity="0.05"/>
<path d="M992 385L988 389L992 385Z" stroke="white" stroke-opacity="0.05"/>
<path d="M992 445L988 449L992 445Z" stroke="white" stroke-opacity="0.05"/>
<path d="M985 507C985 508.326 985.527 509.598 986.464 510.536C987.402 511.473 988.674 512 990 512C991.326 512 992.598 511.473 993.536 510.536C994.473 509.598 995 508.326 995 507C995 505.674 994.473 504.402 993.536 503.464C992.598 502.527 991.326 502 990 502C988.674 502 987.402 502.527 986.464 503.464C985.527 504.402 985 505.674 985 507V507Z" stroke="white" stroke-opacity="0.05"/>
<path d="M996 561L984 573L996 561Z" stroke="white" stroke-opacity="0.05"/>
<path d="M989 627C989 627.265 989.105 627.52 989.293 627.707C989.48 627.895 989.735 628 990 628C990.265 628 990.52 627.895 990.707 627.707C990.895 627.52 991 627.265 991 627C991 626.735 990.895 626.48 990.707 626.293C990.52 626.105 990.265 626 990 626C989.735 626 989.48 626.105 989.293 626.293C989.105 626.48 989 626.735 989 627V627Z" stroke="white" stroke-opacity="0.05"/>
<path d="M1052 25L1048 29L1052 25Z" stroke="white" stroke-opacity="0.05"/>
<path d="M1045 87C1045 88.3261 1045.53 89.5979 1046.46 90.5355C1047.4 91.4732 1048.67 92 1050 92C1051.33 92 1052.6 91.4732 1053.54 90.5355C1054.47 89.5979 1055 88.3261 1055 87C1055 85.6739 1054.47 84.4021 1053.54 83.4645C1052.6 82.5268 1051.33 82 1050 82C1048.67 82 1047.4 82.5268 1046.46 83.4645C1045.53 84.4021 1045 85.6739 1045 87V87Z" stroke="white" stroke-opacity="0.05"/>
<path d="M1045 147C1045 148.326 1045.53 149.598 1046.46 150.536C1047.4 151.473 1048.67 152 1050 152C1051.33 152 1052.6 151.473 1053.54 150.536C1054.47 149.598 1055 148.326 1055 147C1055 145.674 1054.47 144.402 1053.54 143.464C1052.6 142.527 1051.33 142 1050 142C1048.67 142 1047.4 142.527 1046.46 143.464C1045.53 144.402 1045 145.674 1045 147V147Z" stroke="white" stroke-opacity="0.05"/>
<path d="M1052 205L1048 209L1052 205Z" stroke="white" stroke-opacity="0.05"/>
<path d="M1045 267C1045 268.326 1045.53 269.598 1046.46 270.536C1047.4 271.473 1048.67 272 1050 272C1051.33 272 1052.6 271.473 1053.54 270.536C1054.47 269.598 1055 268.326 1055 267C1055 265.674 1054.47 264.402 1053.54 263.464C1052.6 262.527 1051.33 262 1050 262C1048.67 262 1047.4 262.527 1046.46 263.464C1045.53 264.402 1045 265.674 1045 267V267Z" stroke="white" stroke-opacity="0.05"/>
<path d="M1056 321L1044 333L1056 321Z" stroke="white" stroke-opacity="0.05"/>
<path d="M1047 387C1047 387.796 1047.32 388.559 1047.88 389.121C1048.44 389.684 1049.2 390 1050 390C1050.8 390 1051.56 389.684 1052.12 389.121C1052.68 388.559 1053 387.796 1053 387C1053 386.204 1052.68 385.441 1052.12 384.879C1051.56 384.316 1050.8 384 1050 384C1049.2 384 1048.44 384.316 1047.88 384.879C1047.32 385.441 1047 386.204 1047 387V387Z" stroke="white" stroke-opacity="0.05"/>
<path d="M1052 445L1048 449L1052 445Z" stroke="white" stroke-opacity="0.05"/>
<path d="M1045 507C1045 508.326 1045.53 509.598 1046.46 510.536C1047.4 511.473 1048.67 512 1050 512C1051.33 512 1052.6 511.473 1053.54 510.536C1054.47 509.598 1055 508.326 1055 507C1055 505.674 1054.47 504.402 1053.54 503.464C1052.6 502.527 1051.33 502 1050 502C1048.67 502 1047.4 502.527 1046.46 503.464C1045.53 504.402 1045 505.674 1045 507V507Z" stroke="white" stroke-opacity="0.05"/>
<path d="M1056 561L1044 573L1056 561Z" stroke="white" stroke-opacity="0.05"/>
<path d="M1056 621L1044 633L1056 621Z" stroke="white" stroke-opacity="0.05"/>
<path d="M1107 27C1107 27.7956 1107.32 28.5587 1107.88 29.1213C1108.44 29.6839 1109.2 30 1110 30C1110.8 30 1111.56 29.6839 1112.12 29.1213C1112.68 28.5587 1113 27.7956 1113 27C1113 26.2044 1112.68 25.4413 1112.12 24.8787C1111.56 24.3161 1110.8 24 1110 24C1109.2 24 1108.44 24.3161 1107.88 24.8787C1107.32 25.4413 1107 26.2044 1107 27V27Z" stroke="white" stroke-opacity="0.05"/>
<path d="M1112 85L1108 89L1112 85Z" stroke="white" stroke-opacity="0.05"/>
<path d="M1112 145L1108 149L1112 145Z" stroke="white" stroke-opacity="0.05"/>
<path d="M1105 207C1105 208.326 1105.53 209.598 1106.46 210.536C1107.4 211.473 1108.67 212 1110 212C1111.33 212 1112.6 211.473 1113.54 210.536C1114.47 209.598 1115 208.326 1115 207C1115 205.674 1114.47 204.402 1113.54 203.464C1112.6 202.527 1111.33 202 1110 202C1108.67 202 1107.4 202.527 1106.46 203.464C1105.53 204.402 1105 205.674 1105 207V207Z" stroke="white" stroke-opacity="0.05"/>
<path d="M1140 237L1080 297L1140 237Z" stroke="white" stroke-opacity="0.05" stroke-width="3"/>
<path d="M1116 321L1104 333L1116 321Z" stroke="white" stroke-opacity="0.05"/>
<path d="M1109 387C1109 387.265 1109.11 387.52 1109.29 387.707C1109.48 387.895 1109.73 388 1110 388C1110.27 388 1110.52 387.895 1110.71 387.707C1110.89 387.52 1111 387.265 1111 387C1111 386.735 1110.89 386.48 1110.71 386.293C1110.52 386.105 1110.27 386 1110 386C1109.73 386 1109.48 386.105 1109.29 386.293C1109.11 386.48 1109 386.735 1109 387V387Z" stroke="white" stroke-opacity="0.05"/>
<path d="M1107 447C1107 447.796 1107.32 448.559 1107.88 449.121C1108.44 449.684 1109.2 450 1110 450C1110.8 450 1111.56 449.684 1112.12 449.121C1112.68 448.559 1113 447.796 1113 447C1113 446.204 1112.68 445.441 1112.12 444.879C1111.56 444.316 1110.8 444 1110 444C1109.2 444 1108.44 444.316 1107.88 444.879C1107.32 445.441 1107 446.204 1107 447V447Z" stroke="white" stroke-opacity="0.05"/>
<path d="M1105 507C1105 508.326 1105.53 509.598 1106.46 510.536C1107.4 511.473 1108.67 512 1110 512C1111.33 512 1112.6 511.473 1113.54 510.536C1114.47 509.598 1115 508.326 1115 507C1115 505.674 1114.47 504.402 1113.54 503.464C1112.6 502.527 1111.33 502 1110 502C1108.67 502 1107.4 502.527 1106.46 503.464C1105.53 504.402 1105 505.674 1105 507V507Z" stroke="white" stroke-opacity="0.05"/>
<path d="M1140 537L1080 597L1140 537Z" stroke="white" stroke-opacity="0.05" stroke-width="3"/>
<path d="M1109 627C1109 627.265 1109.11 627.52 1109.29 627.707C1109.48 627.895 1109.73 628 1110 628C1110.27 628 1110.52 627.895 1110.71 627.707C1110.89 627.52 1111 627.265 1111 627C1111 626.735 1110.89 626.48 1110.71 626.293C1110.52 626.105 1110.27 626 1110 626C1109.73 626 1109.48 626.105 1109.29 626.293C1109.11 626.48 1109 626.735 1109 627V627Z" stroke="white" stroke-opacity="0.05"/>
</g>
</svg>
