<svg width="512" height="512" viewBox="0 0 512 512" fill="none" xmlns="http://www.w3.org/2000/svg">
<rect width="512" height="512" rx="80" fill="#111316"/>
<path d="M424.699 453.193C421.708 451.696 415.726 448.328 411.613 445.708C399.274 438.037 392.17 434.856 389.366 435.979C386.562 437.101 377.028 426.436 377.028 422.32C377.028 421.197 371.419 413.339 364.502 404.919C351.79 389.202 332.16 360.2 332.16 357.02C332.16 355.897 331.039 354.4 329.73 353.652C328.608 352.903 324.682 348.413 321.317 343.735C318.139 339.057 311.035 329.889 305.988 323.153C300.753 316.418 295.518 308.746 294.21 305.94C293.088 302.946 291.219 300.701 290.097 300.701C288.975 300.701 287.106 299.017 285.984 297.146C284.115 294.152 284.862 292.094 291.219 283.112C295.332 277.312 299.257 272.635 300.005 272.635C300.753 272.822 305.053 278.061 309.54 284.422C334.591 320.16 349.733 341.303 351.977 343.922C353.472 345.606 354.22 348.413 353.472 350.097C352.537 352.342 353.472 353.652 356.089 354.4C358.146 354.961 360.389 356.458 360.95 357.955C362.446 361.884 355.342 361.136 342.816 356.084C331.225 351.219 328.795 353.652 339.638 359.078C343.003 360.762 346.555 363.381 347.303 364.691C348.051 366.001 349.359 366.375 350.107 365.814C350.668 365.065 354.033 366.375 357.211 368.807C360.389 371.24 366.372 374.982 370.484 377.04C377.402 380.595 391.983 397.248 391.983 401.738C391.983 402.674 394.788 406.79 398.153 410.532C407.126 420.636 432.738 456.186 430.868 455.999C430.495 455.812 427.877 454.689 424.699 453.193ZM354.594 371.988C354.594 369.743 350.855 367.311 349.546 368.62C348.238 369.93 350.668 373.672 352.911 373.672C353.846 373.672 354.594 372.924 354.594 371.988Z" fill="url(#paint0_linear_51_1791)"/>
<path d="M53.2345 404.171C56.2257 399.306 62.9558 388.267 68.1903 379.847C73.6118 371.24 77.9116 363.568 77.9116 362.633C77.9116 360.762 87.8198 352.716 96.9802 346.916L102.215 343.735L100.158 348.787C99.0367 351.781 96.9802 355.523 95.2977 357.207C93.6152 359.078 92.3066 362.072 92.1196 363.756C91.9327 365.627 88.9415 372.737 85.5764 379.473C79.968 390.512 77.5377 392.944 63.7036 402.487L48 413.152L53.2345 404.171Z" fill="url(#paint1_linear_51_1791)"/>
<path d="M93.988 383.402C92.8663 381.344 97.9139 366.937 101.84 361.51C104.457 357.955 104.457 357.955 103.522 362.446C102.962 365.066 101.84 370.304 101.279 374.047C99.9704 381.157 95.8575 386.396 93.988 383.402Z" fill="url(#paint2_linear_51_1791)"/>
<path d="M239.622 371.053C223.918 367.872 195.689 355.149 192.324 349.536C191.015 347.478 188.959 345.607 187.65 345.607C186.342 345.607 182.603 343.736 179.425 341.303L173.442 337L188.585 325.212L203.541 313.611L218.123 321.096C226.162 325.399 234.013 328.767 235.696 328.767C239.435 328.767 239.435 331.199 235.696 338.309C231.583 346.542 233.453 346.729 240.183 339.058C245.978 332.509 246.165 332.509 261.495 332.509C270.094 332.509 280.376 331.574 284.489 330.451C288.602 329.328 293.65 328.019 295.706 327.644C298.697 326.896 301.128 329.141 306.923 338.309C318.888 356.833 321.692 361.698 320.009 360.201C319.261 359.452 317.579 359.452 316.457 360.388C315.336 361.324 308.045 364.317 300.38 367.124C283.181 373.298 259.064 374.795 239.622 371.053Z" fill="url(#paint3_linear_51_1791)"/>
<path d="M112.123 352.529L111.937 337L122.032 330.077C132.127 322.967 133.435 323.154 130.444 331.012C129.51 333.445 127.266 339.993 125.397 345.607C121.845 356.272 115.862 368.059 113.806 368.059C113.058 368.059 112.31 361.136 112.123 352.529Z" fill="url(#paint4_linear_51_1791)"/>
<path d="M130.444 343.735C133.435 335.503 136.987 326.334 138.669 323.341C142.408 315.856 159.607 302.198 172.507 296.023C183.35 290.971 187.836 287.79 216.626 264.776C226.161 257.105 243.921 244.382 256.072 236.336C268.224 228.291 280.936 219.496 284.114 216.69C289.162 212.386 314.4 194.237 356.463 165.236C362.071 161.306 368.054 156.816 369.736 155.506C371.232 154.009 374.036 152.886 375.719 152.886C377.401 152.886 379.831 151.39 381.14 149.706C382.449 147.835 388.244 143.344 393.853 139.602L404.322 132.679L391.422 152.699C369.362 186.191 363.38 192.74 338.703 209.206C326.364 217.625 312.156 227.542 306.922 231.658C301.874 235.588 274.393 255.047 246.164 274.88C217.935 294.526 186.715 316.605 176.993 323.528C167.272 330.638 153.999 338.871 147.643 342.051C141.1 345.232 135.865 348.6 135.865 349.349C135.865 350.284 133.435 352.717 130.63 354.775L125.209 358.517L130.444 343.735ZM189.893 312.114C192.136 310.617 192.136 309.869 190.267 307.437C186.715 303.133 184.471 303.695 184.471 309.121C184.471 314.173 185.593 314.734 189.893 312.114Z" fill="url(#paint5_linear_51_1791)"/>
<path d="M341.881 318.102L330.664 303.694L334.964 298.081C337.207 294.9 342.068 286.855 345.433 280.119C350.854 269.267 351.602 265.525 352.724 247.375C353.472 235.4 353.098 225.858 352.163 224.361C350.854 222.864 352.537 219.683 357.585 214.07C364.689 206.399 379.083 194.05 381.327 194.05C381.888 194.05 384.131 199.289 386.374 205.838C391.422 220.432 393.291 247.001 390.3 264.402C387.87 278.435 380.392 300.701 375.718 308.185C368.988 318.85 357.771 332.509 355.528 332.509C354.406 332.509 348.237 325.96 341.881 318.102Z" fill="url(#paint6_linear_51_1791)"/>
<path d="M144.652 293.778C139.043 279.558 135.865 261.222 135.865 242.698C135.865 214.071 146.147 186.192 165.59 162.803C173.255 153.448 175.498 154.009 184.845 167.481C195.315 182.45 195.501 183.011 190.828 190.495C182.976 203.031 174.937 226.42 174.003 238.956C173.442 245.692 174.189 257.666 175.685 265.712C178.302 279.932 178.302 280.306 174.189 284.61C169.516 289.662 156.243 296.959 151.943 296.959C150.447 296.959 148.952 297.894 148.578 299.204C148.204 300.327 146.334 297.894 144.652 293.778Z" fill="url(#paint7_linear_51_1791)"/>
<path d="M273.832 280.68C268.972 275.067 268.598 273.009 271.589 271.886C273.084 271.325 273.832 271.512 273.271 272.635C272.71 273.757 273.458 274.506 275.141 274.506C277.197 274.506 277.945 273.57 277.384 271.886C275.889 267.957 292.153 261.782 295.331 264.963C297.014 266.834 295.705 269.08 288.601 275.628C283.553 280.119 278.88 283.861 278.132 283.861C277.197 283.861 275.328 282.364 273.832 280.68Z" fill="url(#paint8_linear_51_1791)"/>
<path d="M233.826 224.361C228.966 217.813 217.001 200.038 207.841 185.63C203.915 179.456 198.119 171.41 194.754 167.855C191.389 164.3 183.538 153.822 176.994 144.467C158.113 117.711 150.448 107.42 144.465 100.684C139.792 95.6319 139.418 94.5093 142.409 95.6319C144.465 96.3804 148.578 97.503 151.383 98.0643C154.187 98.6256 157.365 100.684 158.487 102.555C159.421 104.613 162.225 106.11 164.469 106.297C166.712 106.297 172.695 107.794 177.555 109.478C185.968 112.472 187.65 114.343 205.036 139.789C230.835 177.585 240.743 191.431 246.726 197.792C249.53 200.786 251.773 204.341 251.773 205.464C251.773 207.896 239.996 229.6 238.687 229.413C238.126 229.413 236.07 227.168 233.826 224.361Z" fill="url(#paint9_linear_51_1791)"/>
<path d="M255.699 213.883C257.008 211.077 258.503 209.58 258.877 210.89C259.438 212.199 258.317 214.445 256.447 216.129C253.643 219.122 253.456 218.935 255.699 213.883Z" fill="url(#paint10_linear_51_1791)"/>
<path d="M339.826 217.812C340.2 217.625 344.874 214.07 349.921 209.954L359.269 202.657L352.726 210.328C349.173 214.632 344.5 218.187 342.63 218.187C340.574 218.374 339.452 218.187 339.826 217.812Z" fill="url(#paint11_linear_51_1791)"/>
<path d="M322.814 178.707C322.814 174.591 313.279 166.545 303.184 162.055C280.937 152.138 260.934 150.454 240.557 156.628C234.014 158.687 228.031 159.622 227.283 158.874C226.723 158.125 222.797 151.015 218.497 142.97L210.832 128.562L217.562 125.756C242.239 115.465 268.599 114.155 296.454 121.827C305.988 124.446 317.392 128.375 321.692 130.621C332.535 136.234 352.351 151.015 353.66 154.57C354.408 156.441 351.79 159.996 345.808 165.422C334.03 175.713 322.814 182.075 322.814 178.707Z" fill="url(#paint12_linear_51_1791)"/>
<path d="M392.169 169.352C392.356 165.984 402.638 146.338 411.051 133.802C414.977 128.001 421.52 120.891 425.82 117.898C429.933 115.091 436.102 110.226 439.28 107.42C442.645 104.426 447.506 100.871 450.31 99.3741C454.984 96.9417 455.357 96.9417 454.236 99.9354C452.74 103.865 441.897 117.523 433.859 125.569C430.68 128.75 427.315 133.428 426.568 136.047C424.324 143.718 391.795 175.152 392.169 169.352Z" fill="url(#paint13_linear_51_1791)"/>
<path d="M414.418 159.435C414.418 159.061 418.531 155.319 423.578 151.203C430.682 145.215 432.552 144.28 431.804 147.273C431.056 150.08 414.418 161.868 414.418 159.435Z" fill="url(#paint14_linear_51_1791)"/>
<path d="M453.676 124.259C453.676 119.207 454.984 115.652 458.349 112.097L463.023 107.045L461.341 112.659C460.406 115.839 458.349 121.266 456.667 124.821L453.863 131.369L453.676 124.259Z" fill="url(#paint15_linear_51_1791)"/>
<path d="M145.586 88.3345C142.221 86.8376 137.174 83.8439 134.369 81.5986C129.696 77.8565 129.696 77.6694 133.622 78.9791C136.052 79.5404 143.156 82.7213 149.512 85.5279C157.925 89.4571 159.794 90.9539 156.429 90.9539C153.812 90.9539 148.951 89.8313 145.586 88.3345Z" fill="url(#paint16_linear_51_1791)"/>
<path d="M121.284 62.888C115.862 59.7072 111.749 56.7134 112.123 56.1521C113.432 54.8424 127.266 62.3266 130.07 65.6946C133.435 69.8109 132.687 69.4367 121.284 62.888Z" fill="url(#paint17_linear_51_1791)"/>
<defs>
<linearGradient id="paint0_linear_51_1791" x1="358.027" y1="272.635" x2="358.027" y2="456" gradientUnits="userSpaceOnUse">
<stop stop-color="#0077FF"/>
<stop offset="1" stop-color="#111316"/>
</linearGradient>
<linearGradient id="paint1_linear_51_1791" x1="75.1074" y1="343.735" x2="75.1074" y2="413.152" gradientUnits="userSpaceOnUse">
<stop stop-color="#0077FF"/>
<stop offset="1" stop-color="#111316"/>
</linearGradient>
<linearGradient id="paint2_linear_51_1791" x1="98.96" y1="358.951" x2="98.96" y2="384.261" gradientUnits="userSpaceOnUse">
<stop stop-color="#0077FF"/>
<stop offset="1" stop-color="#111316"/>
</linearGradient>
<linearGradient id="paint3_linear_51_1791" x1="246.949" y1="313.611" x2="246.949" y2="373.084" gradientUnits="userSpaceOnUse">
<stop stop-color="#0077FF"/>
<stop offset="1" stop-color="#111316"/>
</linearGradient>
<linearGradient id="paint4_linear_51_1791" x1="121.895" y1="324.923" x2="121.895" y2="368.059" gradientUnits="userSpaceOnUse">
<stop stop-color="#0077FF"/>
<stop offset="1" stop-color="#111316"/>
</linearGradient>
<linearGradient id="paint5_linear_51_1791" x1="264.765" y1="132.679" x2="264.765" y2="358.517" gradientUnits="userSpaceOnUse">
<stop stop-color="#0077FF"/>
<stop offset="1" stop-color="#111316"/>
</linearGradient>
<linearGradient id="paint6_linear_51_1791" x1="361.199" y1="194.05" x2="361.199" y2="332.509" gradientUnits="userSpaceOnUse">
<stop stop-color="#0077FF"/>
<stop offset="1" stop-color="#111316"/>
</linearGradient>
<linearGradient id="paint7_linear_51_1791" x1="164.811" y1="156.469" x2="164.811" y2="299.478" gradientUnits="userSpaceOnUse">
<stop stop-color="#0077FF"/>
<stop offset="1" stop-color="#111316"/>
</linearGradient>
<linearGradient id="paint8_linear_51_1791" x1="282.836" y1="264.083" x2="282.836" y2="283.861" gradientUnits="userSpaceOnUse">
<stop stop-color="#0077FF"/>
<stop offset="1" stop-color="#111316"/>
</linearGradient>
<linearGradient id="paint9_linear_51_1791" x1="196.132" y1="95.2341" x2="196.132" y2="229.414" gradientUnits="userSpaceOnUse">
<stop stop-color="#0077FF"/>
<stop offset="1" stop-color="#111316"/>
</linearGradient>
<linearGradient id="paint10_linear_51_1791" x1="256.593" y1="210.41" x2="256.593" y2="218.093" gradientUnits="userSpaceOnUse">
<stop stop-color="#0077FF"/>
<stop offset="1" stop-color="#111316"/>
</linearGradient>
<linearGradient id="paint11_linear_51_1791" x1="349.512" y1="202.657" x2="349.512" y2="218.26" gradientUnits="userSpaceOnUse">
<stop stop-color="#0077FF"/>
<stop offset="1" stop-color="#111316"/>
</linearGradient>
<linearGradient id="paint12_linear_51_1791" x1="282.308" y1="116.912" x2="282.308" y2="179.614" gradientUnits="userSpaceOnUse">
<stop stop-color="#0077FF"/>
<stop offset="1" stop-color="#111316"/>
</linearGradient>
<linearGradient id="paint13_linear_51_1791" x1="423.466" y1="97.6145" x2="423.466" y2="170.062" gradientUnits="userSpaceOnUse">
<stop stop-color="#0077FF"/>
<stop offset="1" stop-color="#111316"/>
</linearGradient>
<linearGradient id="paint14_linear_51_1791" x1="423.188" y1="145.62" x2="423.188" y2="159.764" gradientUnits="userSpaceOnUse">
<stop stop-color="#0077FF"/>
<stop offset="1" stop-color="#111316"/>
</linearGradient>
<linearGradient id="paint15_linear_51_1791" x1="458.349" y1="107.045" x2="458.349" y2="131.369" gradientUnits="userSpaceOnUse">
<stop stop-color="#0077FF"/>
<stop offset="1" stop-color="#111316"/>
</linearGradient>
<linearGradient id="paint16_linear_51_1791" x1="144.388" y1="78.2422" x2="144.388" y2="90.9539" gradientUnits="userSpaceOnUse">
<stop stop-color="#0077FF"/>
<stop offset="1" stop-color="#111316"/>
</linearGradient>
<linearGradient id="paint17_linear_51_1791" x1="121.961" y1="56" x2="121.961" y2="68.3803" gradientUnits="userSpaceOnUse">
<stop stop-color="#0077FF"/>
<stop offset="1" stop-color="#111316"/>
</linearGradient>
</defs>
</svg>
