<svg width="80" height="80" viewBox="0 0 80 80" fill="none" xmlns="http://www.w3.org/2000/svg">
<path fill-rule="evenodd" clip-rule="evenodd" d="M42.6407 1.0551C41.1616 -0.351699 38.8386 -0.351699 37.3595 1.0551C36.1444 2.21087 34.3184 2.44189 32.8539 1.62482C31.0721 0.630742 28.822 1.211 27.7396 2.94053C26.8501 4.36192 25.138 5.04185 23.5164 4.61522C21.5437 4.09623 19.5086 5.21955 18.8899 7.16332C18.3813 8.76127 16.8917 9.84727 15.2148 9.83805C13.1748 9.82684 11.4831 11.4216 11.3664 13.4583C11.2704 15.133 10.0975 16.5561 8.4707 16.965C6.49154 17.4625 5.24911 19.4276 5.64182 21.4302C5.96473 23.0768 5.18216 24.7468 3.70785 25.5482C1.91394 26.5234 1.19794 28.7347 2.07615 30.578C2.79819 32.0935 2.45445 33.9047 1.22543 35.0482C-0.270307 36.4399 -0.415805 38.7589 0.893725 40.3271C1.96994 41.6159 2.08501 43.4555 1.17871 44.869C0.0762666 46.5884 0.5104 48.8713 2.16833 50.0642C3.53075 51.0444 4.09828 52.7988 3.57172 54.3925C2.93134 56.3307 3.91819 58.4355 5.81974 59.1777C7.38263 59.7876 8.3681 61.3466 8.25377 63.0204C8.11474 65.0559 9.5934 66.8501 11.6189 67.0952C13.2839 67.2966 14.6258 68.5613 14.9305 70.2105C15.3011 72.2164 17.1793 73.5864 19.2016 73.3192C20.864 73.0995 22.4776 73.9895 23.1822 75.5112C24.0394 77.3623 26.1991 78.221 28.0912 77.4584C29.6465 76.8316 31.4297 77.2907 32.4904 78.5895C33.7811 80.1702 36.0858 80.4628 37.7292 79.2528C39.0798 78.2584 40.9203 78.2584 42.271 79.2528C43.9143 80.4628 46.219 80.1702 47.5098 78.5895C48.5704 77.2907 50.3536 76.8316 51.9089 77.4584C53.8011 78.221 55.9608 77.3623 56.818 75.5112C57.5226 73.9895 59.1362 73.0995 60.7986 73.3192C62.8209 73.5864 64.6991 72.2164 65.0697 70.2105C65.3744 68.5613 66.7162 67.2966 68.3812 67.0952C70.4068 66.8501 71.8854 65.0559 71.7464 63.0204C71.6321 61.3466 72.6175 59.7876 74.1804 59.1777C76.082 58.4355 77.0688 56.3307 76.4284 54.3925C75.9019 52.7988 76.4694 51.0444 77.8318 50.0642C79.4898 48.8713 79.9239 46.5884 78.8215 44.869C77.9152 43.4555 78.0302 41.6159 79.1064 40.3271C80.416 38.7589 80.2705 36.4399 78.7747 35.0482C77.5457 33.9047 77.202 32.0935 77.924 30.578C78.8022 28.7347 78.0862 26.5234 76.2923 25.5482C74.818 24.7468 74.0354 23.0768 74.3583 21.4302C74.7511 19.4276 73.5086 17.4625 71.5295 16.965C69.9027 16.5561 68.7298 15.133 68.6338 13.4583C68.5171 11.4216 66.8253 9.82684 64.7854 9.83805C63.1085 9.84727 61.6189 8.76127 61.1103 7.16332C60.4916 5.21955 58.4565 4.09623 56.4837 4.61522C54.8621 5.04185 53.1501 4.36192 52.2605 2.94053C51.1782 1.21099 48.9281 0.630742 47.1463 1.62482C45.6818 2.44189 43.8558 2.21087 42.6407 1.0551ZM40.4881 69.0171C56.6762 69.0171 69.7992 55.8705 69.7992 39.6534C69.7992 23.4363 56.6762 10.2897 40.4881 10.2897C24.3001 10.2897 11.1771 23.4363 11.1771 39.6534C11.1771 55.8705 24.3001 69.0171 40.4881 69.0171Z" fill="#0077FF"/>
<path fill-rule="evenodd" clip-rule="evenodd" d="M40.4879 64.1231C53.9779 64.1231 64.9137 53.1676 64.9137 39.6533C64.9137 26.1391 53.9779 15.1836 40.4879 15.1836C26.9978 15.1836 16.062 26.1391 16.062 39.6533C16.062 53.1676 26.9978 64.1231 40.4879 64.1231ZM38.5944 27.3886L37.4188 20.2278C37.3526 19.8247 37.2259 19.417 36.9238 19.1426C36.019 18.3209 34.0692 18.0339 29.5954 21.7392C22.9025 27.2824 19.042 30.4798 24.7967 32.4298C27.0917 33.2075 28.6861 33.7663 29.7473 34.1492C30.8271 34.5387 32.0634 34.3487 32.9482 33.6159L37.7538 29.6358C38.2546 29.221 38.5665 28.621 38.6186 27.9723C38.6342 27.7774 38.6261 27.5815 38.5944 27.3886ZM35.0716 50.2601L31.4225 56.5306C31.2174 56.8831 31.0561 57.2774 31.114 57.681C31.288 58.8921 32.6073 60.3589 38.4139 60.3589C47.0979 60.3589 52.1069 60.3589 48.9119 55.1826C47.6379 53.1185 46.7646 51.6702 46.1902 50.6977C45.6056 49.7081 44.5307 49.0651 43.3813 49.0651L37.1496 49.0651C36.4992 49.0651 35.8766 49.3286 35.4238 49.7955C35.288 49.9355 35.1697 50.0915 35.0716 50.2601ZM43.2007 20.3766L42.5394 27.6035C42.5216 27.7981 42.5275 27.9941 42.557 28.1872C42.6552 28.8306 43.0092 29.4068 43.5384 29.7847L48.6155 33.4099C49.5505 34.0775 50.7974 34.1786 51.8466 33.7126C52.8778 33.2547 54.4282 32.5831 56.6617 31.643C62.2625 29.2855 58.1835 26.373 51.112 21.3236C46.3848 17.9482 44.4605 18.3744 43.6168 19.259C43.3352 19.5543 43.2379 19.9698 43.2007 20.3766ZM52.6616 38.1535L59.8198 37.0503C60.2236 36.9881 60.6507 36.9821 61.0055 37.1853C62.0655 37.7924 62.9417 39.5609 60.8154 44.9696C57.6332 53.064 55.7977 57.733 52.1609 52.8581C50.7103 50.9137 49.6849 49.5687 48.9922 48.6769C48.2875 47.7698 48.0838 46.5349 48.5038 45.4664L50.7902 39.6505C51.0281 39.0455 51.5003 38.5628 52.0995 38.3119C52.2797 38.2364 52.4685 38.1832 52.6616 38.1535ZM21.6181 37.0499L28.7763 38.1531C28.9694 38.1829 29.1582 38.2361 29.3384 38.3115C29.9376 38.5624 30.4098 39.0452 30.6476 39.6501L32.934 45.466C33.3541 46.5345 33.1503 47.7694 32.4456 48.6766C31.7529 49.5684 30.7276 50.9134 29.277 52.8578C25.6401 57.7326 23.8046 53.0637 20.6225 44.9692C18.4961 39.5605 19.3723 37.7921 20.4324 37.185C20.7872 36.9818 21.2143 36.9877 21.6181 37.0499ZM48.0038 39.6533C48.0038 43.8115 44.6389 47.1825 40.4881 47.1825C36.3373 47.1825 32.9725 43.8115 32.9725 39.6533C32.9725 35.4951 36.3373 32.1242 40.4881 32.1242C44.6389 32.1242 48.0038 35.4951 48.0038 39.6533ZM40.6367 44.29C43.1974 44.29 45.2733 42.2104 45.2733 39.645C45.2733 37.0796 43.1974 35 40.6367 35C38.0759 35 36 37.0796 36 39.645C36 42.2104 38.0759 44.29 40.6367 44.29Z" fill="#0077FF"/>
</svg>
