<svg width="336" height="73" viewBox="0 0 336 73" fill="none" xmlns="http://www.w3.org/2000/svg">
<mask id="mask0_21_518" style="mask-type:alpha" maskUnits="userSpaceOnUse" x="0" y="0" width="353" height="70">
<path d="M0 19.122V65.4375C0 67.6466 1.79086 69.4375 3.99999 69.4375H332.499C333.507 69.4375 334.478 69.0569 335.218 68.3718L351.518 53.2706C352.336 52.5136 352.8 51.4502 352.8 50.3363V4.02081C352.8 1.81167 351.009 0.020813 348.8 0.020813H20.3008C19.2928 0.020813 18.3219 0.401414 17.5824 1.08648L1.28161 16.1877C0.464471 16.9447 0 18.0081 0 19.122Z" fill="#0077FF"/>
<path d="M0.5 65.4375V19.122C0.5 18.1474 0.906413 17.2169 1.62141 16.5545L17.9222 1.45327C18.5693 0.853839 19.4188 0.520813 20.3008 0.520813H348.8C350.733 0.520813 352.3 2.08782 352.3 4.02081V50.3363C352.3 51.3109 351.894 52.2414 351.179 52.9038L334.878 68.005C334.231 68.6045 333.381 68.9375 332.499 68.9375H3.99999C2.067 68.9375 0.5 67.3705 0.5 65.4375Z" stroke="white" stroke-opacity="0.1"/>
</mask>
<g mask="url(#mask0_21_518)">
<path opacity="0.05" d="M-0.437843 21.7136C9.85383 22.9816 28.6705 28.3633 48.9622 27.7997C69.2538 27.2362 76.9622 19.9103 96.9622 19.0087C116.962 18.107 124.962 24.6552 144.962 23.4718C164.962 22.2884 172.962 12.6239 192.962 13.3283C212.962 14.0327 220.962 26.5431 240.962 26.853C260.962 27.163 268.962 14.4215 288.962 14.816C308.962 15.2105 319.671 16.3206 336.962 28.7465C354.254 41.1723 456.545 50.8481 371.962 74.46C287.379 98.0719 22.8372 127.995 -69.0378 142.084" fill="black" fill-opacity="0.13"/>
<path opacity="0.29" d="M-0.437843 27.5292C9.85383 28.7972 28.6705 34.1789 48.9622 33.6154C69.2538 33.0518 76.9622 25.7259 96.9622 24.8243C116.962 23.9226 124.962 30.4709 144.962 29.2874C164.962 28.104 172.962 18.4395 192.962 19.1439C212.962 19.8483 220.962 32.3587 240.962 32.6686C260.962 32.9786 268.962 20.2372 288.962 20.6316C308.962 21.0261 319.671 22.1362 336.962 34.5621C354.254 46.9879 456.545 56.6637 371.962 80.2756C287.379 103.888 22.8372 133.811 -69.0378 147.899" fill="black" fill-opacity="0.13"/>
<path opacity="0.53" d="M-0.437843 33.3449C9.85383 34.6128 28.6705 39.9946 48.9622 39.431C69.2538 38.8675 76.9622 31.5416 96.9622 30.64C116.962 29.7383 124.962 36.2865 144.962 35.1031C164.962 33.9197 172.962 24.2552 192.962 24.9596C212.962 25.664 220.962 38.1744 240.962 38.4843C260.962 38.7942 268.962 26.0528 288.962 26.4473C308.962 26.8418 319.671 27.9519 336.962 40.3778C354.254 52.8036 456.545 62.4794 371.962 86.0913C287.379 109.703 22.8372 139.627 -69.0378 153.715" fill="black" fill-opacity="0.13"/>
<path opacity="0.76" d="M-0.437843 39.1605C9.85383 40.4285 28.6705 45.8102 48.9622 45.2466C69.2538 44.6831 76.9622 37.3572 96.9622 36.4556C116.962 35.5539 124.962 42.1021 144.962 40.9187C164.962 39.7353 172.962 30.0708 192.962 30.7752C212.962 31.4796 220.962 43.99 240.962 44.2999C260.962 44.6099 268.962 31.8684 288.962 32.2629C308.962 32.6574 319.671 33.7675 336.962 46.1934C354.254 58.6192 456.545 68.295 371.962 91.9069C287.379 115.519 22.8372 145.442 -69.0378 159.531" fill="black" fill-opacity="0.13"/>
<path d="M-0.437843 44.9761C9.85383 46.2441 28.6705 51.6258 48.9622 51.0623C69.2538 50.4987 76.9622 43.1728 96.9622 42.2712C116.962 41.3695 124.962 47.9178 144.962 46.7343C164.962 45.5509 172.962 35.8864 192.962 36.5908C212.962 37.2952 220.962 49.8056 240.962 50.1155C260.962 50.4255 268.962 37.6841 288.962 38.0785C308.962 38.473 319.671 39.5831 336.962 52.009C354.254 64.4348 456.545 74.1106 371.962 97.7225C287.379 121.334 22.8372 151.258 -69.0378 165.346" fill="black" fill-opacity="0.13"/>
</g>
</svg>
